Coordinates
version=1
nRows=8
nColumns=40
inDegrees=yes

Units are S.I. units (second, meters, Newtons, ...)
Angles are in degrees.

endheader
time	pelvis_tilt	pelvis_list	pelvis_rotation	pelvis_tx	pelvis_ty	pelvis_tz	hip_flexion_r	hip_adduction_r	hip_rotation_r	knee_angle_r	knee_angle_r_beta	ankle_angle_r	subtalar_angle_r	mtp_angle_r	hip_flexion_l	hip_adduction_l	hip_rotation_l	knee_angle_l	knee_angle_l_beta	ankle_angle_l	subtalar_angle_l	mtp_angle_l	lumbar_extension	lumbar_bending	lumbar_rotation	arm_flex_r	arm_add_r	arm_rot_r	elbow_flex_r	pro_sup_r	wrist_flex_r	wrist_dev_r	arm_flex_l	arm_add_l	arm_rot_l	elbow_flex_l	pro_sup_l	wrist_flex_l	wrist_dev_l
     13.66750000	     -3.98022574	     -3.59420253	     -0.90414705	      1.01798439	      0.91817209	      0.44090942	     24.21066326	     -7.78777402	     -6.13638720	     63.02749366	     63.02749366	      8.24552995	    -19.17757919	     14.25307245	     16.09166535	     -0.86716239	     -0.99655915	     30.57788527	     30.57788527	     20.97660779	    -17.93468596	     10.23012121	    -10.97511023	      6.42119639	      3.07772032	     -2.04453689	    -13.55561601	    -16.05772150	     25.99966694	     46.68233123	      0.00000000	      0.00000000	     20.32914603	    -20.34057594	     -6.14775717	     63.21250348	     46.96448127	      0.00000000	      0.00000000
     13.68671429	     -3.99255909	     -3.65582218	     -1.65621525	      1.01541234	      0.91759246	      0.44116323	     25.67290296	     -7.39442391	     -5.85736950	     62.46486583	     62.46486583	      9.21618982	    -19.22820559	     14.40359695	     15.83727341	     -1.03530958	     -1.51058753	     30.68560515	     30.68560515	     21.35382591	    -18.05611645	     10.27684830	    -11.10080544	      6.60129042	      3.02832306	     -3.87934408	    -13.13684562	    -16.09816442	     25.42074993	     46.69194492	      0.00000000	      0.00000000	     21.88161856	    -21.03877514	     -6.61623616	     64.41183552	     47.03663879	      0.00000000	      0.00000000
     13.70592857	     -3.97197200	     -3.77805763	     -2.46342530	      1.01285124	      0.91755766	      0.44188639	     26.90275457	     -6.83053827	     -5.61742101	     61.17965037	     61.17965037	     10.15423443	    -19.22966136	     14.51644410	     15.41386721	     -1.31071301	     -2.10698530	     30.56518204	     30.56518204	     21.69605735	    -18.13076378	     10.39341177	    -11.26199791	      6.79175245	      2.99336848	     -5.52556965	    -12.75475760	    -16.16790020	     25.07536345	     46.69562890	      0.00000000	      0.00000000	     23.38815170	    -21.71482334	     -7.07734165	     65.73824547	     47.10880695	      0.00000000	      0.00000000
     13.72514286	     -4.02923785	     -3.93985922	     -3.31753839	      1.01017254	      0.91796672	      0.44306736	     27.98799755	     -6.11557228	     -5.41947389	     59.16521624	     59.16521624	     10.95258045	    -19.18066133	     14.37638516	     14.96144762	     -1.65806966	     -2.74898341	     30.23095867	     30.23095867	     21.89456151	    -18.16889218	     10.52647759	    -11.37677827	      7.00284012	      2.92478520	     -6.89759424	    -12.40437021	    -16.23800925	     24.88650739	     46.69512768	      0.00000000	      0.00000000	     24.76844637	    -22.44139515	     -7.52989308	     66.94733016	     47.17587659	      0.00000000	      0.00000000
     13.74435714	     -4.19961219	     -4.09272569	     -4.20553529	      1.00741206	      0.91861668	      0.44460171	     28.94936992	     -5.34059126	     -5.25178384	     56.46010440	     56.46010440	     11.17515447	    -19.06324330	     12.86333718	     14.52747097	     -2.02742068	     -3.46225721	     29.70608554	     29.70608554	     21.97934349	    -18.14760736	     10.60311487	    -11.42907969	      7.17828008	      2.87639109	     -8.41502564	    -12.05332630	    -16.54698820	     25.73765033	     46.66448400	      0.00000000	      0.00000000	     25.84710240	    -23.13071408	     -8.20898927	     68.90363044	     47.28631034	      0.00000000	      0.00000000
     13.76357143	     -4.34682616	     -4.32644381	     -5.09357266	      1.00470084	      0.91981649	      0.44657502	     29.59478585	     -4.35289830	     -5.03550660	     53.11306313	     53.11306313	     11.43715661	    -18.79674231	     12.17174793	     13.91305410	     -2.49611005	     -4.18609037	     28.92170304	     28.92170304	     21.94602182	    -18.08910004	     10.69717062	    -11.47334598	      7.41870278	      2.82979045	     -9.28863206	    -11.80662723	    -16.56587483	     25.66578187	     46.65938066	      0.00000000	      0.00000000	     27.14432148	    -23.77935361	     -8.61845422	     69.86316657	     47.34488058	      0.00000000	      0.00000000
     13.78278571	     -4.60694710	     -4.50244626	     -5.97824717	      1.00204257	      0.92107000	      0.44870830	     29.88986407	     -3.54677146	     -5.10408945	     48.80653233	     48.80653233	      9.67181204	    -18.44518915	      5.84584159	     13.29502316	     -2.91987985	     -5.00116299	     27.89366200	     27.89366200	     21.50370904	    -18.02736550	      9.92443365	    -11.44918854	      7.58883915	      2.74674042	    -10.44121665	    -11.54378491	    -16.78417277	     26.98783791	     46.60042027	      0.00000000	      0.00000000	     27.97847804	    -24.28910323	     -9.51637115	     71.88669446	     47.47762425	      0.00000000	      0.00000000
     13.80200000	     -4.89085476	     -4.72388072	     -6.81233264	      0.99942689	      0.92253308	      0.45115687	     30.10597598	     -2.56571029	     -4.98476707	     44.45317855	     44.45317855	      9.65502824	    -17.13885192	      5.60510822	     12.66658324	     -3.38170702	     -5.74093943	     26.83974138	     26.83974138	     21.36361265	    -17.84873873	     10.09722011	    -11.31339416	      7.82133012	      2.63913139	    -10.86811497	    -11.39110697	    -16.76042335	     26.98104420	     46.59352431	      0.00000000	      0.00000000	     29.10660633	    -24.85337743	     -9.77734957	     72.53640265	     47.51575796	      0.00000000	      0.00000000
